<svg width="125" height="140" viewBox="0 0 125 140" fill="none" xmlns="http://www.w3.org/2000/svg">
<g filter="url(#filter0_d_18_446)">
<path d="M17 52.5C17 27.371 37.371 7 62.5 7C87.629 7 108 27.371 108 52.5V67.5C108 92.629 87.629 113 62.5 113C37.371 113 17 92.629 17 67.5V52.5Z" fill="#E4F2EE"/>
<path d="M86.5884 56.0887C89.1021 58.0904 89.1021 61.9096 86.5884 63.9113L56.1147 88.1789C52.8391 90.7874 48 88.4549 48 84.2676V35.7324C48 31.5451 52.8391 29.2126 56.1147 31.8211L86.5884 56.0887Z" fill="#2B7369"/>
<path d="M107 52.5V67.5H109V52.5H107ZM18 67.5V52.5H16V67.5H18ZM62.5 112C37.9233 112 18 92.0767 18 67.5H16C16 93.1812 36.8188 114 62.5 114V112ZM107 67.5C107 92.0767 87.0767 112 62.5 112V114C88.1812 114 109 93.1812 109 67.5H107ZM62.5 8C87.0767 8 107 27.9233 107 52.5H109C109 26.8188 88.1812 6 62.5 6V8ZM62.5 6C36.8188 6 16 26.8188 16 52.5H18C18 27.9233 37.9233 8 62.5 8V6Z" fill="#E4F2EE"/>
</g>
<defs>
<filter id="filter0_d_18_446" x="0" y="0" width="125" height="140" filterUnits="userSpaceOnUse" color-interpolation-filters="sRGB">
<feFlood flood-opacity="0" result="BackgroundImageFix"/>
<feColorMatrix in="SourceAlpha" type="matrix" values="0 0 0 0 0 0 0 0 0 0 0 0 0 0 0 0 0 0 127 0" result="hardAlpha"/>
<feOffset dy="10"/>
<feGaussianBlur stdDeviation="8"/>
<feComposite in2="hardAlpha" operator="out"/>
<feColorMatrix type="matrix" values="0 0 0 0 0 0 0 0 0 0 0 0 0 0 0 0 0 0 0.25 0"/>
<feBlend mode="normal" in2="BackgroundImageFix" result="effect1_dropShadow_18_446"/>
<feBlend mode="normal" in="SourceGraphic" in2="effect1_dropShadow_18_446" result="shape"/>
</filter>
</defs>
</svg>
